<svg width="357" height="58" viewBox="0 0 357 58" fill="none" xmlns="http://www.w3.org/2000/svg">
<path d="M1.216 45.312C0.789334 45.312 0.490667 45.248 0.320001 45.12C0.149334 44.992 0.0640007 44.8427 0.0640007 44.672C0.0640007 44.5013 0.170667 44.3307 0.384001 44.16C0.597334 43.9467 0.874667 43.7973 1.216 43.712C3.008 43.2427 4.30933 42.5387 5.12 41.6C5.93067 40.6187 6.336 39.0827 6.336 36.992V8.896C6.336 7.82933 6.22933 6.93333 6.016 6.208C5.84533 5.44 5.54667 4.8 5.12 4.28799C4.69333 3.77599 4.16 3.37066 3.52 3.07199C2.88 2.73066 2.112 2.43199 1.216 2.17599C0.533334 1.96266 0.149334 1.64266 0.0640007 1.216C0.021334 0.789327 0.405334 0.575993 1.216 0.575993H12.608L34.752 40.064C35.008 39.2107 35.136 38.1867 35.136 36.992V8.896C35.136 7.82933 35.0293 6.93333 34.816 6.208C34.6453 5.44 34.3467 4.8 33.92 4.28799C33.4933 3.77599 32.96 3.37066 32.32 3.07199C31.68 2.73066 30.912 2.43199 30.016 2.17599C29.3333 1.96266 28.9493 1.64266 28.864 1.216C28.8213 0.789327 29.2053 0.575993 30.016 0.575993H41.856C42.2827 0.575993 42.5813 0.639993 42.752 0.767994C42.9227 0.895995 43.008 1.04533 43.008 1.216C43.008 1.38666 42.9013 1.57866 42.688 1.792C42.4747 1.96266 42.1973 2.09066 41.856 2.17599C40.96 2.43199 40.192 2.73066 39.552 3.07199C38.912 3.37066 38.3787 3.77599 37.952 4.28799C37.5253 4.8 37.2053 5.44 36.992 6.208C36.8213 6.93333 36.736 7.82933 36.736 8.896V36.992C36.736 39.0827 37.1413 40.6187 37.952 41.6C38.7627 42.5387 40.064 43.2427 41.856 43.712C42.5813 43.8827 42.9653 44.2027 43.008 44.672C43.0933 45.0987 42.7093 45.312 41.856 45.312H30.016L8.192 6.39999C8.02133 7.03999 7.936 7.87199 7.936 8.896V36.992C7.936 39.0827 8.34133 40.6187 9.152 41.6C9.96267 42.5387 11.264 43.2427 13.056 43.712C13.7813 43.8827 14.1653 44.2027 14.208 44.672C14.2933 45.0987 13.9093 45.312 13.056 45.312H1.216ZM57.9305 11.264C59.7225 11.264 61.4932 11.5627 63.2425 12.16C65.0345 12.7147 66.6345 13.5253 68.0425 14.592C69.4505 15.6587 70.5812 16.9387 71.4345 18.432C72.2878 19.9253 72.7145 21.6107 72.7145 23.488V24.768H47.6905C47.6478 25.1947 47.6052 25.6427 47.5625 26.112C47.5625 26.5387 47.5625 26.9867 47.5625 27.456C47.5625 30.4 48.0105 32.896 48.9065 34.944C49.8025 36.9493 50.9545 38.5707 52.3625 39.808C53.7705 41.0453 55.3492 41.9413 57.0985 42.496C58.8478 43.008 60.5758 43.264 62.2825 43.264C64.1598 43.264 65.8878 43.008 67.4665 42.496C69.0878 41.9413 70.3252 41.2373 71.1785 40.384C71.4772 40.0853 71.7545 39.936 72.0105 39.936C72.3945 39.936 72.6505 40.1493 72.7785 40.576C72.9492 40.96 72.8638 41.3227 72.5225 41.664C71.0292 43.2853 69.1732 44.48 66.9545 45.248C64.7785 46.016 62.4745 46.4 60.0425 46.4C57.6105 46.4 55.1572 46.016 52.6825 45.248C50.2505 44.48 48.0532 43.3493 46.0905 41.856C44.1705 40.32 42.5918 38.4427 41.3545 36.224C40.1598 34.0053 39.5625 31.4667 39.5625 28.608C39.5625 25.664 40.0745 23.104 41.0985 20.928C42.1652 18.752 43.5518 16.96 45.2585 15.552C47.0078 14.1013 48.9705 13.0347 51.1465 12.352C53.3652 11.6267 55.6265 11.264 57.9305 11.264ZM67.0185 23.488C67.0185 21.9947 66.8052 20.5867 66.3785 19.264C65.9518 17.9413 65.3545 16.7893 64.5865 15.808C63.8185 14.8267 62.8798 14.0373 61.7705 13.44C60.6612 12.8427 59.4238 12.544 58.0585 12.544C55.3278 12.544 53.0452 13.4613 51.2105 15.296C49.4185 17.1307 48.2878 19.8613 47.8185 23.488H67.0185ZM83.3465 32.64L80.3385 38.976C79.5705 40.5973 79.2718 41.7707 79.4425 42.496C79.6558 43.1787 80.3598 43.712 81.5545 44.096C81.9812 44.224 82.2158 44.4587 82.2585 44.8C82.3012 45.1413 82.0025 45.312 81.3625 45.312H72.1465C71.5065 45.312 71.2078 45.1627 71.2505 44.864C71.2932 44.5227 71.6345 44.2667 72.2745 44.096C73.7678 43.7547 75.0052 43.2853 75.9865 42.688C77.0105 42.0907 77.8638 41.088 78.5465 39.68L82.6425 31.04L75.9225 16.896C75.2398 15.488 74.3865 14.4853 73.3625 13.888C72.3812 13.2907 71.1438 12.8213 69.6505 12.48C69.0105 12.3093 68.6692 12.0747 68.6265 11.776C68.5838 11.4347 68.8825 11.264 69.5225 11.264H85.3305C85.9705 11.264 86.2692 11.4347 86.2265 11.776C86.1838 12.1173 85.9492 12.352 85.5225 12.48C84.3278 12.864 83.6238 13.4187 83.4105 14.144C83.2398 14.8267 83.5385 15.9787 84.3065 17.6L87.3145 23.936L90.2585 17.6C91.0265 15.9787 91.3038 14.8267 91.0905 14.144C90.9198 13.4187 90.2372 12.864 89.0425 12.48C88.6158 12.352 88.3812 12.1173 88.3385 11.776C88.2958 11.4347 88.5945 11.264 89.2345 11.264H98.4505C99.0905 11.264 99.3892 11.4347 99.3465 11.776C99.3038 12.0747 98.9625 12.3093 98.3225 12.48C96.8292 12.8213 95.5705 13.2907 94.5465 13.888C93.5652 14.4853 92.7332 15.488 92.0505 16.896L88.0185 25.472L94.7385 39.68C95.4212 41.088 96.2532 42.0907 97.2345 42.688C98.2585 43.2853 99.5172 43.7547 101.011 44.096C101.651 44.2667 101.992 44.5227 102.035 44.864C102.077 45.1627 101.779 45.312 101.139 45.312H85.3305C84.6905 45.312 84.3918 45.1413 84.4345 44.8C84.4772 44.4587 84.7118 44.224 85.1385 44.096C86.3332 43.712 87.0158 43.1787 87.1865 42.496C87.3998 41.7707 87.1225 40.5973 86.3545 38.976L83.3465 32.64ZM114.831 10.688H123.023C123.407 10.688 123.599 10.9013 123.599 11.328C123.599 11.7547 123.407 11.968 123.023 11.968H114.831V34.944C114.831 37.888 115.386 40.1493 116.495 41.728C117.647 43.264 119.29 44.032 121.423 44.032C121.807 44.032 122.106 44.1173 122.319 44.288C122.532 44.4587 122.639 44.6507 122.639 44.864C122.682 45.0347 122.596 45.2053 122.383 45.376C122.17 45.5467 121.85 45.632 121.423 45.632C116.772 45.632 113.231 44.7147 110.799 42.88C108.367 41.0453 107.151 38.4 107.151 34.944V14.976C107.151 13.9093 107.044 13.1413 106.831 12.672C106.618 12.2027 105.871 11.968 104.591 11.968C104.25 11.968 103.972 11.8827 103.759 11.712C103.546 11.5413 103.439 11.3707 103.439 11.2C103.439 10.9867 103.524 10.7947 103.695 10.624C103.866 10.4533 104.164 10.368 104.591 10.368C105.914 10.368 107.108 10.0693 108.175 9.472C109.284 8.87466 110.266 8.08533 111.119 7.104C111.972 6.12266 112.698 5.01333 113.295 3.77599C113.935 2.53866 114.447 1.27999 114.831 -3.8147e-06V10.688ZM147.787 0.511993C148.939 0.511993 150.027 0.597327 151.051 0.767994C152.075 0.895995 153.056 1.04533 153.995 1.216C154.934 1.38666 155.83 1.53599 156.683 1.66399C157.579 1.79199 158.454 1.83466 159.307 1.792L160.587 14.592C160.672 15.36 160.502 15.744 160.075 15.744C159.862 15.744 159.648 15.6373 159.435 15.424C159.222 15.2107 159.072 14.9333 158.987 14.592C158.731 13.696 158.326 12.544 157.771 11.136C157.259 9.72799 156.534 8.36266 155.595 7.03999C154.656 5.67466 153.504 4.52266 152.139 3.584C150.816 2.60266 149.259 2.112 147.467 2.112C144.608 2.112 142.219 2.70933 140.299 3.904C138.422 5.056 136.928 6.592 135.819 8.51199C134.752 10.432 133.984 12.6293 133.515 15.104C133.088 17.536 132.875 20.0107 132.875 22.528C132.875 25.344 133.238 28.0107 133.963 30.528C134.731 33.0453 135.776 35.264 137.099 37.184C138.422 39.0613 140 40.5547 141.835 41.664C143.712 42.7307 145.739 43.264 147.915 43.264C149.408 43.264 150.816 43.0507 152.139 42.624C153.462 42.1547 154.678 41.6 155.787 40.96C156.896 40.32 157.856 39.6587 158.667 38.976C159.52 38.2507 160.182 37.6533 160.651 37.184C161.206 36.6293 161.632 36.352 161.931 36.352C162.23 36.352 162.336 36.608 162.251 37.12C162.208 37.5893 161.952 38.1227 161.483 38.72C160.672 39.7867 159.67 40.768 158.475 41.664C157.323 42.5173 156.043 43.264 154.635 43.904C153.27 44.544 151.819 45.0347 150.283 45.376C148.79 45.76 147.296 45.952 145.803 45.952C142.518 45.952 139.574 45.3973 136.971 44.288C134.368 43.136 132.171 41.536 130.379 39.488C128.587 37.44 127.222 34.9867 126.283 32.128C125.344 29.2267 124.875 26.0267 124.875 22.528C124.875 18.7733 125.451 15.5093 126.603 12.736C127.798 9.96266 129.419 7.68 131.467 5.88799C133.515 4.05333 135.926 2.70933 138.699 1.856C141.515 0.959994 144.544 0.511993 147.787 0.511993ZM197.651 36.992C197.651 39.0827 198.056 40.6187 198.867 41.6C199.678 42.5387 200.979 43.2427 202.771 43.712C203.496 43.8827 203.88 44.2027 203.923 44.672C204.008 45.0987 203.624 45.312 202.771 45.312H184.851C184.424 45.312 184.126 45.248 183.955 45.12C183.784 44.992 183.699 44.8427 183.699 44.672C183.699 44.5013 183.806 44.3307 184.019 44.16C184.232 43.9467 184.51 43.7973 184.851 43.712C186.643 43.2427 187.944 42.5387 188.755 41.6C189.566 40.6187 189.971 39.0827 189.971 36.992V20.416C189.971 18.112 189.438 16.2773 188.371 14.912C187.304 13.5467 185.832 12.864 183.955 12.864C183.102 12.864 182.248 13.056 181.395 13.44C180.584 13.7813 179.816 14.2507 179.091 14.848C178.366 15.4453 177.726 16.1493 177.171 16.96C176.616 17.728 176.19 18.5387 175.891 19.392V36.992C175.891 39.0827 176.296 40.6187 177.107 41.6C177.918 42.5387 179.219 43.2427 181.011 43.712C181.736 43.8827 182.12 44.2027 182.163 44.672C182.248 45.0987 181.864 45.312 181.011 45.312H163.091C162.664 45.312 162.366 45.248 162.195 45.12C162.024 44.992 161.939 44.8427 161.939 44.672C161.939 44.5013 162.046 44.3307 162.259 44.16C162.472 43.9467 162.75 43.7973 163.091 43.712C164.883 43.2427 166.184 42.5387 166.995 41.6C167.806 40.6187 168.211 39.0827 168.211 36.992V11.456C168.211 9.32266 167.806 7.76533 166.995 6.78399C166.227 5.75999 164.926 5.07733 163.091 4.736C162.366 4.608 161.982 4.37333 161.939 4.03199C161.896 3.64799 162.28 3.34933 163.091 3.13599C165.651 2.53866 168.04 1.96266 170.259 1.40799C172.52 0.81066 174.398 0.341328 175.891 -3.8147e-06V16.384C176.19 15.7867 176.616 15.1893 177.171 14.592C177.768 13.952 178.494 13.3973 179.347 12.928C180.2 12.416 181.224 12.0107 182.419 11.712C183.614 11.4133 185 11.264 186.579 11.264C190.078 11.264 192.787 12.224 194.707 14.144C196.67 16.064 197.651 18.5813 197.651 21.696V36.992ZM225.938 41.152C225.724 40.1707 225.618 39.104 225.618 37.952V20.224C225.02 21.0773 224.21 21.76 223.186 22.272C222.162 22.7413 221.052 23.168 219.858 23.552C218.706 23.936 217.511 24.3413 216.274 24.768C215.036 25.152 213.927 25.7067 212.946 26.432C211.964 27.1573 211.154 28.1387 210.514 29.376C209.916 30.5707 209.618 32.1493 209.618 34.112C209.618 35.8187 209.895 37.312 210.45 38.592C211.004 39.8293 211.708 40.8747 212.562 41.728C213.458 42.5387 214.439 43.136 215.506 43.52C216.615 43.904 217.682 44.096 218.706 44.096C219.858 44.096 221.074 43.8613 222.354 43.392C223.634 42.9227 224.828 42.176 225.938 41.152ZM226.194 42.112C224.956 43.264 223.442 44.096 221.65 44.608C219.858 45.12 217.724 45.376 215.25 45.376C213.287 45.376 211.495 45.12 209.874 44.608C208.252 44.096 206.844 43.3707 205.65 42.432C204.498 41.4933 203.58 40.384 202.898 39.104C202.258 37.824 201.938 36.416 201.938 34.88C201.938 32.6613 202.407 30.8693 203.346 29.504C204.327 28.1387 205.564 27.0507 207.058 26.24C208.551 25.4293 210.194 24.7893 211.986 24.32C213.82 23.8507 215.612 23.4027 217.362 22.976C219.111 22.5067 220.711 21.9733 222.162 21.376C223.612 20.7787 224.722 19.9253 225.49 18.816C225.49 17.92 225.276 17.0667 224.85 16.256C224.466 15.4027 223.911 14.656 223.186 14.016C222.503 13.376 221.65 12.864 220.626 12.48C219.644 12.096 218.578 11.904 217.426 11.904C214.652 11.904 212.306 12.4373 210.386 13.504C208.508 14.528 207.143 15.936 206.29 17.728C205.991 18.2827 205.65 18.56 205.266 18.56C205.052 18.56 204.924 18.3893 204.882 18.048C204.882 17.664 205.138 17.1093 205.65 16.384C206.034 15.7867 206.588 15.168 207.314 14.528C208.039 13.8453 208.935 13.2267 210.002 12.672C211.111 12.0747 212.412 11.584 213.906 11.2C215.442 10.816 217.212 10.624 219.218 10.624C220.668 10.624 222.204 10.8373 223.826 11.264C225.49 11.648 227.026 12.2667 228.434 13.12C229.842 13.9307 230.994 14.9333 231.89 16.128C232.828 17.3227 233.298 18.7307 233.298 20.352V36.992C233.298 39.0827 233.703 40.6187 234.514 41.6C235.324 42.5387 236.626 43.2427 238.418 43.712C239.143 43.8827 239.527 44.2027 239.57 44.672C239.655 45.0987 239.271 45.312 238.418 45.312H231.506C228.732 45.312 226.962 44.2453 226.194 42.112ZM249.204 49.6C249.204 50.6667 249.289 51.5627 249.46 52.288C249.673 53.056 249.993 53.696 250.42 54.208C250.846 54.72 251.38 55.1253 252.02 55.424C252.66 55.7653 253.428 56.064 254.324 56.32C254.665 56.4053 254.942 56.5333 255.156 56.704C255.369 56.9173 255.476 57.1093 255.476 57.28C255.476 57.4507 255.39 57.6 255.22 57.728C255.049 57.856 254.75 57.92 254.324 57.92H236.404C235.593 57.92 235.209 57.7067 235.252 57.28C235.337 56.8533 235.721 56.5333 236.404 56.32C237.3 56.064 238.068 55.7653 238.708 55.424C239.348 55.1253 239.881 54.72 240.308 54.208C240.734 53.696 241.033 53.056 241.204 52.288C241.417 51.5627 241.524 50.6667 241.524 49.6V22.784C241.524 20.6507 241.118 19.0933 240.308 18.112C239.54 17.088 238.238 16.4053 236.404 16.064C235.678 15.936 235.294 15.7013 235.252 15.36C235.209 14.976 235.593 14.6773 236.404 14.464C238.964 13.8667 241.353 13.2907 243.572 12.736C245.833 12.1387 247.71 11.6693 249.204 11.328V14.464C251.721 12.3307 254.75 11.264 258.292 11.264C260.681 11.264 262.878 11.712 264.884 12.608C266.889 13.4613 268.617 14.656 270.068 16.192C271.561 17.728 272.713 19.5413 273.524 21.632C274.334 23.68 274.74 25.8987 274.74 28.288C274.74 31.232 274.292 33.7707 273.396 35.904C272.542 38.0373 271.369 39.808 269.876 41.216C268.382 42.5813 266.633 43.6053 264.628 44.288C262.622 44.9707 260.468 45.312 258.164 45.312C256.244 45.312 254.473 44.9067 252.852 44.096C251.273 43.2853 250.057 42.3467 249.204 41.28V49.6ZM249.204 38.656C249.588 39.552 250.1 40.32 250.74 40.96C251.422 41.6 252.126 42.1333 252.852 42.56C253.577 42.9867 254.324 43.3067 255.092 43.52C255.86 43.6907 256.564 43.776 257.204 43.776C258.91 43.776 260.382 43.264 261.62 42.24C262.857 41.216 263.881 39.9147 264.692 38.336C265.502 36.7573 266.1 35.008 266.484 33.088C266.868 31.168 267.06 29.312 267.06 27.52C267.06 25.2587 266.804 23.2107 266.292 21.376C265.822 19.4987 265.14 17.92 264.244 16.64C263.39 15.3173 262.388 14.3147 261.236 13.632C260.084 12.9067 258.825 12.544 257.46 12.544C256.094 12.544 254.644 12.8427 253.108 13.44C251.614 14.0373 250.313 14.9333 249.204 16.128V38.656ZM285.394 10.688H293.586C293.97 10.688 294.162 10.9013 294.162 11.328C294.162 11.7547 293.97 11.968 293.586 11.968H285.394V34.944C285.394 37.888 285.948 40.1493 287.058 41.728C288.21 43.264 289.852 44.032 291.986 44.032C292.37 44.032 292.668 44.1173 292.882 44.288C293.095 44.4587 293.202 44.6507 293.202 44.864C293.244 45.0347 293.159 45.2053 292.946 45.376C292.732 45.5467 292.412 45.632 291.986 45.632C287.335 45.632 283.794 44.7147 281.362 42.88C278.93 41.0453 277.714 38.4 277.714 34.944V14.976C277.714 13.9093 277.607 13.1413 277.394 12.672C277.18 12.2027 276.434 11.968 275.154 11.968C274.812 11.968 274.535 11.8827 274.322 11.712C274.108 11.5413 274.002 11.3707 274.002 11.2C274.002 10.9867 274.087 10.7947 274.258 10.624C274.428 10.4533 274.727 10.368 275.154 10.368C276.476 10.368 277.671 10.0693 278.738 9.472C279.847 8.87466 280.828 8.08533 281.682 7.104C282.535 6.12266 283.26 5.01333 283.858 3.77599C284.498 2.53866 285.01 1.27999 285.394 -3.8147e-06V10.688ZM308.243 11.264C310.035 11.264 311.806 11.5627 313.555 12.16C315.347 12.7147 316.947 13.5253 318.355 14.592C319.763 15.6587 320.894 16.9387 321.747 18.432C322.6 19.9253 323.027 21.6107 323.027 23.488V24.768H298.003C297.96 25.1947 297.918 25.6427 297.875 26.112C297.875 26.5387 297.875 26.9867 297.875 27.456C297.875 30.4 298.323 32.896 299.219 34.944C300.115 36.9493 301.267 38.5707 302.675 39.808C304.083 41.0453 305.662 41.9413 307.411 42.496C309.16 43.008 310.888 43.264 312.595 43.264C314.472 43.264 316.2 43.008 317.779 42.496C319.4 41.9413 320.638 41.2373 321.491 40.384C321.79 40.0853 322.067 39.936 322.323 39.936C322.707 39.936 322.963 40.1493 323.091 40.576C323.262 40.96 323.176 41.3227 322.835 41.664C321.342 43.2853 319.486 44.48 317.267 45.248C315.091 46.016 312.787 46.4 310.355 46.4C307.923 46.4 305.47 46.016 302.995 45.248C300.563 44.48 298.366 43.3493 296.403 41.856C294.483 40.32 292.904 38.4427 291.667 36.224C290.472 34.0053 289.875 31.4667 289.875 28.608C289.875 25.664 290.387 23.104 291.411 20.928C292.478 18.752 293.864 16.96 295.571 15.552C297.32 14.1013 299.283 13.0347 301.459 12.352C303.678 11.6267 305.939 11.264 308.243 11.264ZM317.331 23.488C317.331 21.9947 317.118 20.5867 316.691 19.264C316.264 17.9413 315.667 16.7893 314.899 15.808C314.131 14.8267 313.192 14.0373 312.083 13.44C310.974 12.8427 309.736 12.544 308.371 12.544C305.64 12.544 303.358 13.4613 301.523 15.296C299.731 17.1307 298.6 19.8613 298.131 23.488H317.331ZM330.836 22.72C330.836 20.5867 330.431 19.0293 329.62 18.048C328.852 17.024 327.551 16.3413 325.716 16C324.991 15.872 324.607 15.6373 324.564 15.296C324.521 14.912 324.905 14.6133 325.716 14.4C328.276 13.8027 330.665 13.2267 332.884 12.672C335.145 12.0747 337.023 11.6053 338.516 11.264V16.704C338.985 15.2107 339.988 13.9307 341.524 12.864C343.103 11.7973 345.108 11.264 347.54 11.264C348.777 11.264 349.951 11.4773 351.06 11.904C352.169 12.288 353.151 12.8427 354.004 13.568C354.857 14.2933 355.54 15.168 356.052 16.192C356.564 17.1733 356.82 18.24 356.82 19.392C356.82 20.6293 356.585 21.76 356.116 22.784C355.647 23.7653 355.028 24.576 354.26 25.216C353.492 25.856 352.617 26.3253 351.636 26.624C350.655 26.88 349.631 26.9227 348.564 26.752C349.247 26.4107 349.844 25.6213 350.356 24.384C350.868 23.104 351.124 21.376 351.124 19.2C351.124 17.28 350.591 15.7227 349.524 14.528C348.457 13.3333 347.113 12.736 345.492 12.736C344.425 12.736 343.444 13.0133 342.548 13.568C341.695 14.08 340.969 14.7627 340.372 15.616C339.775 16.4267 339.305 17.344 338.964 18.368C338.665 19.3493 338.516 20.3307 338.516 21.312V36.992C338.516 39.0827 338.921 40.6187 339.732 41.6C340.543 42.5387 341.844 43.2427 343.636 43.712C344.361 43.8827 344.745 44.2027 344.788 44.672C344.873 45.0987 344.489 45.312 343.636 45.312H325.716C325.289 45.312 324.991 45.248 324.82 45.12C324.649 44.992 324.564 44.8427 324.564 44.672C324.564 44.5013 324.671 44.3307 324.884 44.16C325.097 43.9467 325.375 43.7973 325.716 43.712C327.508 43.2427 328.809 42.5387 329.62 41.6C330.431 40.6187 330.836 39.0827 330.836 36.992V22.72Z" fill="#FFF2E9"/>
</svg>
